<?xml version="1.0" encoding="UTF-8"?>
<svg id="Layer_1" data-name="Layer 1" xmlns="http://www.w3.org/2000/svg" viewBox="0 0 387.15 454.51">
  <path d="M188.68,211.53l1.3,4.42.97,5.9,1.64,4.22c.86,3,1.41,6.27,1.6,9.6l.68,4.17.42,4.15-2.41.23-.31,1.95c-.74,1.99-1.66,3.57-3.32,5.82l-4.35-2.7.62-2.76-1.34-.03-1.96-4.99-.6-3.32-1.13-4.24-.46-3.37-1.62-8.32.42-2.86-1.53-4.96-1.01-6.91-1.64-9.21-.85-3.54-.58-6.95-.71,5.14-2.6,6.35-2.01,5.16-3.81,4.84-.9,2.09c.99,2.3,1.58,4.01,2.28,6.4l2.26,4.98,1.65,4.32,1.14,4.92.74,3.64,2.07,5.18c.14,1.16.57,2.36,1.06,3.17l2.69,4.39-.85,1.33.55,1.62.97,4.88.33,6.74-.64,3.27c-2.31-.77-1.07-.36.46.15l-1.03,2.67c-2.29.16-2.2.9-.06,1.48l-.23,2.67-1.73,3,1.03,1.07-.21,1.84-1.15,4.38-.09,2.74-1.91,3.43-2.37,4.83.55,2.77,4.8,1.16c3.49,1.57,7.29,3.69,10.38,5.67l1,3.49-2.25,2.12-1.58.6.73,2.85c-.76.49-3.17.71-4.95.61l-10.27-3.41-1.43,3.52.94,4.06-.93,6.04.41,3.57.76,5.12,3.52,6.86c.46,1.52,1.62,3.24,2.54,3.98l2.7.72.95,1.81-1.38,2.27,2.47,6.91.65,1.88-1.66.79-.77.69,1.33.64,6.26,7.42,2.57,4.15.81,2.44-3,1.39.27.76-.67,2.38-1.57,2.94-1.93,2.68-4.3-4.7-5.48-6.56c-4.39-4.21-7.54-9.18-10.34-14.42l-1.51-3.88-1.98-2.52-1.59-5.04c-.64-2.55-1.4-4.87-2.56-7.19l-.43-3.78.32-9.42-1.54-10.14c-.15-1.08-.12-2.56.12-3.73l.16-8.2-4.35-3.26-3.06-3.65-5.31-3.78s-.68.08-.96.11l-.3,4-1.99,8.32-.51,5.6-.43,5.49c-.05,2.79-1.09,5.94-2.6,8.03l-3.83-.38s-.51-.59-.91-1.05l-2.18-2.1-.8-6.47c1.38-.17,1.11-.51-.85-1.11l-.44-6.76.04-3.84-.03-3.51v-4.88s.99-3.49.99-3.49l-.09-3.99.71-3.73,1.94-5.69.76-3.73,2.58-9.15,1.86-7.17.36-4.97.63-5.11,1.53-7.6,1.35-5.14.94-3.32c1.1-2.31,2.01-4.59,2.7-7.01l1.5-2.21,1.19-4.54c.27-2.41.09-4.81-1.13-6.89-.63-1.66-1.13-3.24-1.53-4.8l-.3-2.55c-2.36-1.98-4.1-3.82-5.37-5.83l-1.85-5.72-2.78-6.91-3.04,6.37-3.77,6.47-7.47,9.49-4.09,7.93.26,10.16,2.57,6.8c1.71,2.72,3.32,5.4,4.02,8.65,1.57,3.23,3.18,5.92,5.29,9.26l.22,3.65,3,3.87,1.3,4.96-.21,4.21-3.14,4.93-4.51,2.92-3.71-.24-2.47-3.28-3.03.23-5.21-7.12-3.78-6.52c-.98-1.96-1.87-3.54-3.12-5.4l-3.25-8.09-.46-5.94-.05-4.51,1.31-5.46.11-3.76,1.21-2.77.3-7.07,1.97-5.63,2.68-5.84,1.36-4.11.87-3.78,2.46-5.4c1.84-1.64,3.17-3.14,4.54-4.95l2.55-3.59c1.85-3.76,2.94-7.74,3.28-12.16l.7-3.43c1.69-2.62,1.89-6.2-.85-7.75l-2.82-2.09-2.79-2.29-1.57-3.27-3.34-8.45c-.03-2.09-.86-3.83-2.14-5.53l-.58-4.38-.96-2.97-.04-4.12-.49-3.43-.54-5.08-.47-9.09-1.9-7.14.78-9.19c.51-2.77.37-5.72.04-8.63l-.84-2.87-.75-5.46-1.22-8.74-.71-4.23-.67-4.27.15-4.29.4-6.68-.53-3.9.43-7.21.64-1.41-1.31-1.04.06-4.71,1.99-7.47,2.61-6.03,1.28-2.9-.18-1.53,1.83-1.18,2.92.48,4.15-1.98,3.73.29,4.29-1.21,3.54-.28,4.2-.69,7.72-1.32,5.48.58h4.57s6.76-.57,6.76-.57l3.53-.03,3.36-.12c2.46-1.15,4.94-1.95,7.64-2.53l3.96-.43c1.71.03,3.15.14,5.15.47l4.65-1.19,6.53,1.1,5.36.62,5.15.02,6.96,1.13,1.53.56c3.35-1.35,6.12-.54,8.91.05,2.17.06,4.22.27,6.1.51l3.93,1.56,4.07.55,8.61,1.99,2.01-1.02,5.28,1.67.86,2.44,5.46,2.34c1.29.02,2.49,1.15,3.16,2.45l3.74.95,2.89,6.44,1.68,6.06-.15,3.01.49,3.97.14,7.58.02,4.44-.44,7.5-.44,2.67.12,4.74-.9,5.44,1.03,5,.11,4.18,1.58,7.75-1.3,1.55.88,2.15.48,6.68.02,5.01.85,3.22,1.01,3.59-.99,2.41.05,5.48-.56,5-.36,7.04-.9,5.36-.38,3.86-2.13,6.38-2.31,5.33-1.88,4.84-3.09,1.75-4.08.51-.93,1.03.63,2.09.06,3.41-.02,7.74c-.18,4.18,1.66,7.87,4.21,11.12l3.15,5.22,4.4,5.2,4.83,2.8,2.21,1.21,4.25,2.18,4.3,2.58,2.69,1.74,4.46,3.33,5.09,4.16.58,3.13c1.87,1.59,2.49,3.45,2.65,5.73l.81,7-.2,9.23-.57,5.26c-1.71,3.96-3.7,8.06-5.86,11.85l-3.39,3.67-3.6,3.13c-2.75,1.89-4.59,3.56-6.89,6.84l-6.41-4.12c-1.58-3.23-2.5-6.56.36-8.53l3.29-3.82,3.79-4.71,2.7-3.52c1.2-4.15,1.61-7.77,1.43-12.02l-1.39-6.92-2.65-2.94-3.73-3.84-4.02-2.73-7.14-4.6-4.3-3.52-4.15-3.49-1.3-.63-1.08,1.32-1.33,2.94-3.38,7.79-2.2,3.84,1.93,4.22,2.32,5.11.81,3.18,1.34,3.46c.59,1.74,1.06,3.54,1.36,5.18l.3,5.33-.14,5.85-1.4,6.78-.03,6.07-1.84,5.36-1.02,2.88c-1.24,2.26-2.19,5.37-2.07,7.41l2.14,3.78,2.68,4.7c.63,1.19,2.37,2.86,3.22,2.58l4.65.57,3.42,4.49,1.23,3.12,2.95,2.54,2.06,5.06.37,4.38,2.11,7.73-.15,4.87-.61,2.57-.09,6.24-1.94,2.18.43,3.35-3.77,9.53-1.2,4.51c-2.58,1.72-3.82,2.39-7.33,4.04l-4.11-3.59c.43-1.55.62-2.25.52-1.87l-2.15-1.72.57-2.9.98-3.8.98-6.44.17-5.48,1.5-1.24-.82-1.3-.06-6.67c.12-1.79.35-3.49.76-5.22l-1.95-5.93-1.68-1.86c-1.23-1.88-2.61-3.73-4.03-5.34l-7.69-5.55-3.21-2.44c-1.58.38-3.38,2.89-3.55,5.05l-1.18,6.06-1.64,10.92-1.52,7.58-.81,2.7-1.66,6.88-.36,4.57-1.68,6.3-1.13,4.58-3,8.58-.02,4.16-.73,5.03-1.73,5.91-.44,2.74-.86,4.29-1.06,6.68.22,20.44,1.05,4,1.79,5.19.67,3.66,2.68,3.96,1.84,4.79c2.05,4.45,4.62,8.89,7.47,12.94l4.94,4.2-.17,2.43-1.4,1.21-.41,3.75-1.97,1.5.31,2.28-2.26.35-4.06-3.08-4.65-1.68-8.85-10.44-3.8-5.16v-3.09c-1.74-2.07-2.45-3.27-3.49-5.14l-2.29-7.44-1.49-4.26-.39-3.94-.02-3.57-1.38-10.21.45-3.34,1.01-7.36.72-3.68.91-5.98.93-6.31,1.07-4.86.75-2.17,2.87-6.41.56-3.46c.44-1.96,1.47-4.16,2.59-5.7l1.11-4.32.49-3.48,1.81-6.4.95-3.66,1.46-7.57.1-2.05,1.12-4.93-.32-2.03-5.24,2.41-2.56,1.77-3.31,1.44-4.24-4.68-.95-3.59,1.32-2.7,2.93-1.63,7.21-7.36,3.81-6.37c1.6-2.02,2.65-3.62,4.16-6.09-1.63-4.08-2.97-6.83-5.06-10.34l-6.08-6.75c-2.99-4.83-4.49-10.48-5.52-15.82l-.51-2.87-.16-8.63-.65-4.18.44-4.52.38-5.91c-.32-1.89-1.18-4.23-2.19-5.91l-2.94-4.09-4.86-6.41c.25-.99-.22.32-.42,1ZM166.26,93.8l4.77,1.7,3.37,1.07-2.8-3.12c-1.64-2.23-3.08-4.97-3.94-7.47l.88-3.48.33-2.67-1.33-3.13,4.1-8.01,3.61-2.99-2.66-.53-8.37,2.14-4.23,1.37-2.43.55-.85,2.5-1.89-.15-2.85,1.98.23,1.74-2.22.37-1.19,4.68,2.8,3.3,3.54,2.59,3.98,2.88,7.15,4.68ZM207.01,89.85c.89-1.66,2.34-2.86,3.96-3.45l3.4-3.1,2.03-2.79-3.42-4.94-4.98-3.61-2.71-.18-5.15-2.35-1.64-.81-1.38-2.54-1.81,1.47-1.66-1.13-1.25.27.72,1.17,2.62,2.64,2.98,5.38.96,2.96.22,3.81c.08,2.31-.09,5.12-.65,7.22-1.29,1.87-1.83,2.77-2.75,4.72l-2.77,3.08-.5,1.37,1.06.38,1.16-.24,4.05-1.18,3.17-2.8c1.59-1.57,2.85-3.05,4.34-5.34ZM227.11,200.84c.74-.4,1.46-.78,1.01-.54l1.27-5.53,1.15-4.33.35-5.16.19-4.56-1.17-3.16-1.55,1.52-3.37,3.52-1.65.02-.46,1.73-.56,2.3c-1.1,1.06-1.58,3.61-.83,5.24l2.21,4.16,2.09,1.69,1.32,3.08ZM155.29,278.58c.94,1.22,1.4,1.56,1.31.28l1.46-1.79-.87-1.54.22-2.41.22-5.13c.34-3.28.87-6.39,2.13-9.28,1.62-2.38,1.92-4.82,2.07-7.74l-3.16-11.32-1.94-5.89-1.68-3.41-1.68,5.3-1.21,5.25-2.98,10.46.72,3.9,1,3.99,1.06,1.95-1.15,1.36,1.07,4.57,1.48,4.2,1.93,7.25Z"/>
  <g>
    <polygon points="210.42 404.25 211.46 408.24 211.92 409.57 211.92 409.57 211.46 408.24 210.42 404.25 210.37 399.67 210.37 399.67 210.42 404.25"/>
    <polygon points="195.91 406.72 195.93 410.29 195.91 406.72 195.06 400.43 195.06 400.43 195.91 406.72"/>
    <path d="M267.2,37.86l.11,6.04v.03s0,.03,0,.03l.02,4.44v.16s0,.16,0,.16v.05c64.6,28.46,109.82,93.09,109.82,168.09,0,93.85-70.8,171.47-161.79,182.28l.05,4.43.84,3.22.77,2.23c95.72-11.61,170.13-93.35,170.13-192.15,0-80.68-49.63-149.99-119.95-179.02Z"/>
    <path d="M190.93,410.31l-.02-3.25-.9-6.67c-99.58-1.91-180.01-83.5-180.01-183.53,0-63.93,32.86-120.32,82.56-153.21l-.28-1.68v-.03s0-.03,0-.03l-.67-4.27-.07-.47.02-.48.15-4.29v-.06s0-.02,0-.02C36.7,86.52,0,147.49,0,216.87c0,105.85,85.41,192.12,190.93,193.54v-.1Z"/>
    <polygon points="262.17 36.55 262.31 43.99 262.33 46.67 262.33 46.67 262.31 43.99 262.17 36.55"/>
  </g>
</svg>